<?xml version="1.0" encoding="UTF-8" standalone="no"?>
<!-- Generator: Adobe Illustrator 17.0.1, SVG Export Plug-In . SVG Version: 6.00 Build 0)  -->

<svg
   xmlns:dc="http://purl.org/dc/elements/1.1/"
   xmlns:cc="http://creativecommons.org/ns#"
   xmlns:rdf="http://www.w3.org/1999/02/22-rdf-syntax-ns#"
   xmlns:svg="http://www.w3.org/2000/svg"
   xmlns="http://www.w3.org/2000/svg"
   xmlns:sodipodi="http://sodipodi.sourceforge.net/DTD/sodipodi-0.dtd"
   xmlns:inkscape="http://www.inkscape.org/namespaces/inkscape"
   version="1.1"
   x="0px"
   y="0px"
   width="86px"
   height="86px"
   viewBox="0 0 86 86"
   enable-background="new 0 0 86 86"
   xml:space="preserve"
   id="svg7194"
   inkscape:version="0.48.2 r9819"
   sodipodi:docname="icon-launcher-messaging.svg"><metadata
   id="metadata7221"><rdf:RDF><cc:Work
       rdf:about=""><dc:format>image/svg+xml</dc:format><dc:type
         rdf:resource="http://purl.org/dc/dcmitype/StillImage" /><dc:title></dc:title></cc:Work></rdf:RDF></metadata><defs
   id="defs7219" /><sodipodi:namedview
   pagecolor="#ffffff"
   bordercolor="#666666"
   borderopacity="1"
   objecttolerance="10"
   gridtolerance="10"
   guidetolerance="10"
   inkscape:pageopacity="0"
   inkscape:pageshadow="2"
   inkscape:window-width="1245"
   inkscape:window-height="990"
   id="namedview7217"
   showgrid="true"
   inkscape:snap-grids="true"
   inkscape:zoom="1.372093"
   inkscape:cx="169.34884"
   inkscape:cy="-141.65625"
   inkscape:window-x="1817"
   inkscape:window-y="50"
   inkscape:window-maximized="0"
   inkscape:current-layer="svg7194"><inkscape:grid
     type="xygrid"
     id="grid7958"
     empspacing="5"
     visible="true"
     enabled="true"
     snapvisiblegridlinesonly="true" /></sodipodi:namedview>
<g
   id="Layer_2"
   display="none">
</g>
<g
   id="Layer_1">
	<linearGradient
   id="SVGID_1_"
   gradientUnits="userSpaceOnUse"
   x1="12.8062"
   y1="12.8066"
   x2="85.2829"
   y2="85.2833">
		<stop
   offset="0.0049"
   style="stop-color:#08C0CC"
   id="stop7199" />
		<stop
   offset="1"
   style="stop-color:#1C8C79"
   id="stop7201" />
	</linearGradient>
	<path
   d="M85.699,43c0-23.582-19.117-42.7-42.7-42.7C19.417,0.3,0.3,19.418,0.3,43   c0,23.583,19.117,42.7,42.7,42.7c0.636,0,41.277,0,41.277,0c0.786,0,1.423-0.637,1.423-1.423C85.7,84.277,85.699,43.636,85.699,43z   "
   id="path7203"
   fill="url(#SVGID_1_)" />
	<g
   id="g7205">
	</g>
</g>
<path
   sodipodi:type="arc"
   style="fill:#97fff8;fill-opacity:1;fill-rule:nonzero;stroke:none"
   id="path8470"
   sodipodi:cx="120"
   sodipodi:cy="44.885593"
   sodipodi:rx="20"
   sodipodi:ry="18.885593"
   d="m 140,44.885593 a 20,18.885593 0 1 1 -40,0 20,18.885593 0 1 1 40,0 z"
   transform="matrix(1.1457627,0,0,1.1913843,-94.491524,-10.475991)" /><g
   id="Zoom__x2B_"
   transform="matrix(2.997423,0,0,3.1000509,33.42846,23.850079)"><g
     id="g4"><path
       inkscape:connector-curvature="0"
       style="fill-rule:evenodd"
       d="m 14.368652,15.067469 -3.792495,-3.659847 c 1.039687,-1.4383406 1.654048,-3.1833581 1.654048,-5.0690415 0,-4.8992286 -4.1141153,-8.8708225 -9.189153,-8.8708225 -5.0750379,0 -9.189153,3.9715939 -9.189153,8.8708225 0,4.8992285 4.1141151,8.8708215 9.189153,8.8708215 1.9533514,0 3.7609888,-0.593078 5.2509443,-1.596748 l 3.7911817,3.659848 c 0.631427,0.609552 1.654048,0.609552 2.285474,0 0.631426,-0.609553 0.630114,-1.595481 0,-2.205033 z m -11.3276,-2.392587 c -3.6244645,0 -6.5636807,-2.8373957 -6.5636807,-6.3363015 0,-3.498906 2.9392162,-6.33630181 6.5636807,-6.33630181 3.6244643,0 6.5636809,2.83739581 6.5636809,6.33630181 0,3.4989058 -2.9392166,6.3363015 -6.5636809,6.3363015 z"
       id="path6"
       sodipodi:nodetypes="ccsssscsscsssss" /></g></g></svg>
