<?xml version="1.0" encoding="UTF-8" standalone="no"?>
<!-- Generator: Adobe Illustrator 17.0.1, SVG Export Plug-In . SVG Version: 6.00 Build 0)  -->

<svg
   xmlns:dc="http://purl.org/dc/elements/1.1/"
   xmlns:cc="http://creativecommons.org/ns#"
   xmlns:rdf="http://www.w3.org/1999/02/22-rdf-syntax-ns#"
   xmlns:svg="http://www.w3.org/2000/svg"
   xmlns="http://www.w3.org/2000/svg"
   xmlns:xlink="http://www.w3.org/1999/xlink"
   xmlns:sodipodi="http://sodipodi.sourceforge.net/DTD/sodipodi-0.dtd"
   xmlns:inkscape="http://www.inkscape.org/namespaces/inkscape"
   version="1.1"
   x="0px"
   y="0px"
   width="86px"
   height="86px"
   viewBox="0 0 86 86"
   enable-background="new 0 0 86 86"
   xml:space="preserve"
   id="svg3977"
   inkscape:version="0.48.2 r9819"
   sodipodi:docname="harbour-mmslog.svg"
   inkscape:export-filename="harbour-mmslog.png"
   inkscape:export-xdpi="90"
   inkscape:export-ydpi="90"><metadata
   id="metadata4004"><rdf:RDF><cc:Work
       rdf:about=""><dc:format>image/svg+xml</dc:format><dc:type
         rdf:resource="http://purl.org/dc/dcmitype/StillImage" /><dc:title></dc:title></cc:Work></rdf:RDF></metadata><defs
   id="defs4002"><linearGradient
     inkscape:collect="always"
     xlink:href="#SVGID_1_"
     id="linearGradient6727"
     gradientUnits="userSpaceOnUse"
     x1="12.8062"
     y1="12.8066"
     x2="85.2829"
     y2="85.2833" /></defs><sodipodi:namedview
   pagecolor="#ffffff"
   bordercolor="#666666"
   borderopacity="1"
   objecttolerance="10"
   gridtolerance="10"
   guidetolerance="10"
   inkscape:pageopacity="0"
   inkscape:pageshadow="2"
   inkscape:window-width="1355"
   inkscape:window-height="1067"
   id="namedview4000"
   showgrid="false"
   inkscape:zoom="7.7617302"
   inkscape:cx="43.415507"
   inkscape:cy="48.029065"
   inkscape:window-x="1576"
   inkscape:window-y="9"
   inkscape:window-maximized="0"
   inkscape:current-layer="svg3977" />
<g
   id="Layer_2"
   display="none"><g
   id="g4869">
	<linearGradient
   y2="85.2833"
   x2="85.2829"
   y1="12.8066"
   x1="12.8062"
   gradientUnits="userSpaceOnUse"
   id="linearGradient4871">
		<stop
   id="stop4873"
   style="stop-color:#08C0CC"
   offset="0.0049" />
		<stop
   id="stop4875"
   style="stop-color:#1C8C79"
   offset="1" />
	</linearGradient>
	<path
   fill="url(#SVGID_1_)"
   id="path4877"
   d="M85.699,43c0-23.582-19.117-42.7-42.7-42.7C19.417,0.3,0.3,19.418,0.3,43   c0,23.583,19.117,42.7,42.7,42.7c0.636,0,41.277,0,41.277,0c0.786,0,1.423-0.637,1.423-1.423C85.7,84.277,85.699,43.636,85.699,43z   " />
</g>
</g>
<g
   id="Layer_1">
	<linearGradient
   id="SVGID_1_"
   gradientUnits="userSpaceOnUse"
   x1="12.8062"
   y1="12.8066"
   x2="85.2829"
   y2="85.2833">
		<stop
   offset="0.0049"
   style="stop-color:#08C0CC"
   id="stop3982" />
		<stop
   offset="1"
   style="stop-color:#1C8C79"
   id="stop3984" />
	</linearGradient>
	<path
   d="M 85.699,43 C 85.699,19.418 66.582,0.3 42.999,0.3 19.417,0.3 0.3,19.418 0.3,43 c 0,23.583 19.117,42.7 42.7,42.7 0.636,0 41.277,0 41.277,0 0.786,0 1.423,-0.637 1.423,-1.423 0,0 -0.001,-40.641 -0.001,-41.277 z"
   id="path3986"
   style="fill:url(#linearGradient6727)"
   inkscape:connector-curvature="0"
   inkscape:export-filename="harbour-mmslog.png"
   inkscape:export-xdpi="90.632324"
   inkscape:export-ydpi="90.632324" />
	<g
   id="g4861"
   transform="translate(58.669492,109.32203)"><g
     id="g3988">
	</g><g
     id="g3992">
	</g></g>
<g
   id="g6801"><g
     transform="matrix(1.0944994,0,0,1.1444437,-4.9240084,-7.0055206)"
     id="g6729"><g
       transform="matrix(0.07436581,0,0,0.06998789,11.598183,28.285304)"
       id="g5953"><title
         id="title5955">Layer 1</title><g
         id="layer1-1"
         transform="translate(6.9299186,9.2042532)"><g
           id="g13699"
           transform="matrix(0.871496,0,0,0.857415,55.1795,-5.86944)"><path
             style="fill:#101010;fill-opacity:0.94117647;fill-rule:evenodd;stroke:#0000ff;stroke-width:0;stroke-linecap:round;stroke-linejoin:round;stroke-miterlimit:4"
             inkscape:connector-curvature="0"
             id="path10998"
             d="m 371.02454,575.33398 0.28125,0.5625 c -41.91861,89.37909 57.39761,128.87012 64.15625,131.4375 l 0.125,0.25 c 0.0304,-0.0641 0.0635,-0.12341 0.0937,-0.1875 0.10955,0.041 0.4375,0.1875 0.4375,0.1875 l 10.7409,-43.8637 c 41.92047,-89.38019 -68.41971,-85.56891 -75.1784,-88.1363 l -0.125,-0.25 c -0.0305,0.0643 -0.0634,0.12323 -0.0937,0.1875 -0.10953,-0.0409 -0.4375,-0.1875 -0.4375,-0.1875 z"
             stroke-miterlimit="4" /><path
             style="fill:#000000;fill-rule:nonzero;stroke:#0000ff;stroke-width:0;stroke-linecap:round;stroke-linejoin:round;stroke-miterlimit:4;stroke-dashoffset:0"
             inkscape:connector-curvature="0"
             id="rect2007"
             d="M 802.25238,115.77378 C 834.77722,86.575173 900.74066,54.645699 938.90662,51.525059 872.6029,104.60389 872.42187,136.75198 865.59888,181.47388 c -6.823,44.72191 -31.78485,104.41446 -29.22846,191.33889 2.33411,79.36414 32.14404,153.88773 38.55444,200.35856 6.4104,46.47076 2.58423,85.81573 63.07782,135.66443 -37.24957,-2.30408 -119.38037,-45.23066 -133.50824,-58.79584 -55.16803,-52.97101 -35.34295,-128.24603 -25.10449,-171.90857 17.70154,-75.48901 -25.09009,-44.89267 -39.00128,-98.25015 13.91119,-53.35752 55.86829,-26.25425 39.28326,-100.52567 -8.56958,-38.37626 -32.23345,-114.37366 22.58045,-163.58175 z"
             stroke-miterlimit="4" /><path
             style="fill:#000000;fill-rule:nonzero;stroke:#0000ff;stroke-width:0;stroke-linecap:round;stroke-linejoin:round;stroke-miterlimit:4;stroke-dashoffset:0"
             inkscape:connector-curvature="0"
             d="M 802.58636,115.10981 C 835.11127,85.911217 901.07465,53.981751 939.2406,50.861099 872.93689,103.93993 872.75586,136.08803 865.93286,180.80992 c -6.82294,44.72191 -31.78485,104.41448 -29.22839,191.33888 2.33404,79.36414 32.14404,153.88776 38.55444,200.35852 6.4104,46.47083 2.58417,85.8158 63.07776,135.66449 C 901.08716,705.86774 818.9563,662.94116 804.82849,649.37598 749.6604,596.40497 769.48553,521.12988 779.724,477.46741 c 17.70148,-75.48905 -25.09015,-44.89267 -39.00134,-98.25018 13.91119,-53.35752 55.86828,-26.25425 39.28326,-100.52567 -8.56952,-38.37628 -32.2334,-114.37364 22.58044,-163.58176 l 0,10e-6 z"
             id="path7373"
             stroke-miterlimit="4" /><path
             style="fill:#000000;fill-rule:nonzero;stroke:#0000ff;stroke-width:0;stroke-linecap:round;stroke-linejoin:round;stroke-miterlimit:4;stroke-dashoffset:0"
             inkscape:connector-curvature="0"
             id="path23581"
             d="m 399.7019,132.79045 c 31.92014,-14.78416 57.41773,-25.22985 84.8927,-32.807624 27.47498,-7.577789 63.48914,-15.874496 122.67743,-23.670319 -60.11364,47.204853 -57.40082,67.511623 -37.79162,104.920343 -11.00837,-5.39327 -38.82184,-20.00868 -67.30469,-26.89466 -34.76257,-8.40412 -51.81806,-7.26245 -79.34625,-7.45683 -27.52823,-0.19438 -46.72507,5.30809 -55.44113,8.16631 -8.0203,2.63005 -3.9184,-4.20682 32.31356,-22.25722 z"
             stroke-miterlimit="4" /><path
             style="fill:#000000;fill-rule:nonzero;stroke:#0000ff;stroke-width:0;stroke-linecap:round;stroke-linejoin:round;stroke-miterlimit:4;stroke-dashoffset:0"
             inkscape:connector-curvature="0"
             id="path2777"
             d="m 261.13974,246.97035 a 54.352585,54.352562 0 1 1 -108.70517,0 54.352585,54.352562 0 1 1 108.70517,0 z"
             stroke-miterlimit="4" /><path
             style="fill:#000000;fill-rule:nonzero;stroke:#0000ff;stroke-width:0;stroke-linecap:round;stroke-linejoin:round;stroke-miterlimit:4;stroke-dashoffset:0"
             inkscape:connector-curvature="0"
             id="path1883"
             d="m 511.23096,368.93805 c 0,57.46982 -22.19971,109.52582 -58.07599,147.21429 -35.87635,37.68854 -97.63397,60.5683 -123.29404,60.88538 C 313.52844,577.2395 173.66983,543.46814 137.79352,505.77966 96.666687,470.61429 80.180199,443.96664 75.153038,407.17911 73.187981,384.17114 93.399681,298.96731 135.20035,262.2486 c 35.87631,-37.68853 145.4852,-101.53455 200.19162,-101.53455 54.70645,0 81.88666,23.32109 117.763,61.00963 35.87628,37.68852 58.07599,89.74452 58.07599,147.21437 z"
             stroke-miterlimit="4" /><path
             style="fill:#000000;fill-rule:nonzero;stroke:#0000ff;stroke-width:0;stroke-linecap:round;stroke-linejoin:round;stroke-miterlimit:4;stroke-dashoffset:0"
             inkscape:connector-curvature="0"
             d="m 511.56146,367.10327 c 0,57.46982 -22.1997,109.52582 -58.07599,147.2143 -35.87634,37.68853 -97.63397,60.56829 -123.29406,60.88537 -16.33249,0.20178 -162.1911,-35.56958 -198.06742,-73.25799 -41.126813,-35.16541 -51.613301,-59.81309 -56.640477,-96.60059 -1.965042,-23.008 18.246658,-108.21182 60.047307,-144.93051 35.87632,-37.68854 145.48523,-101.53456 200.19165,-101.53456 54.70645,0 81.88666,23.32109 117.763,61.00963 35.87629,37.68853 58.07599,89.74453 58.07599,147.21435 z"
             id="path10986"
             stroke-miterlimit="4" /><g
             id="g9179"><path
               style="fill:#000000;fill-rule:nonzero;stroke:#0000ff;stroke-width:0;stroke-linecap:round;stroke-linejoin:round;stroke-miterlimit:4;stroke-dashoffset:0"
               inkscape:connector-curvature="0"
               id="path1886"
               d="m 283.13974,238.97026 a 54.352581,54.352558 0 1 1 -108.70515,0 54.352581,54.352558 0 1 1 108.70515,0 z"
               stroke-miterlimit="4" /><path
               style="fill:#000000;fill-rule:nonzero;stroke:#0000ff;stroke-width:0;stroke-linecap:round;stroke-linejoin:round;stroke-miterlimit:4;stroke-dashoffset:0"
               inkscape:connector-curvature="0"
               id="path2775"
               d="m 259.35495,258.57745 a 16.507999,15.74246 0 1 1 -33.01599,0 16.507999,15.74246 0 1 1 33.01599,0 z"
               stroke-miterlimit="4" /><path
               style="fill:#000000;fill-rule:evenodd;stroke:#0000ff;stroke-width:0;stroke-linecap:round;stroke-linejoin:round;stroke-miterlimit:4"
               inkscape:connector-curvature="0"
               d="m 284.41339,301.70404 c 26.2616,-13.7001 26.2616,-13.7001 26.2616,-13.7001"
               id="path9184"
               stroke-miterlimit="4" /></g><g
             id="g22661"><path
               style="fill:#000000;fill-opacity:0.43529412;fill-rule:nonzero;stroke:#0000ff;stroke-width:0;stroke-linecap:round;stroke-linejoin:round;stroke-miterlimit:4;stroke-dashoffset:0"
               inkscape:connector-curvature="0"
               id="path19957"
               d="m 124.35472,-4.6320633 a 41.25264,36.922216 0 0 1 -82.505279,0 41.25264,36.922216 0 1 1 82.505279,0 z"
               stroke-miterlimit="4" /><path
               style="fill:#000000;fill-opacity:0.56078389;fill-rule:nonzero;stroke:#0000ff;stroke-width:0;stroke-linecap:round;stroke-linejoin:round;stroke-miterlimit:4;stroke-dashoffset:0"
               inkscape:connector-curvature="0"
               d="m 35.425369,117.30251 a 23.44136,21.27618 0 1 1 -46.88271,0 23.44136,21.27618 0 1 1 46.88271,0 z"
               id="path19959"
               stroke-miterlimit="4" /><path
               style="fill:#000000;fill-opacity:0.56078384;fill-rule:nonzero;stroke:#0000ff;stroke-width:0;stroke-linecap:round;stroke-linejoin:round;stroke-miterlimit:4;stroke-dashoffset:0"
               inkscape:connector-curvature="0"
               d="m 81.202927,330.38916 a 28.649469,27.566839 0 1 1 -57.298927,0 28.649469,27.566839 0 1 1 57.298927,0 z"
               id="path19961"
               stroke-miterlimit="4" /><path
               style="fill:#000000;fill-opacity:0.56078384;fill-rule:nonzero;stroke:#0000ff;stroke-width:0;stroke-linecap:round;stroke-linejoin:round;stroke-miterlimit:4;stroke-dashoffset:0"
               inkscape:connector-curvature="0"
               id="path19963"
               d="m 65.87973,241.44904 a 33.895809,31.730591 0 1 1 -67.79161,0 33.895809,31.730591 0 1 1 67.79161,0 z"
               stroke-miterlimit="4" /><path
               style="fill:#000000;fill-opacity:0.56078389;fill-rule:nonzero;stroke:#0000ff;stroke-width:0;stroke-linecap:round;stroke-linejoin:round;stroke-miterlimit:4;stroke-dashoffset:0"
               inkscape:connector-curvature="0"
               d="m -1.1861177,181.84082 a 21.350559,19.185341 0 1 1 -42.7011083,0 21.350559,19.185341 0 1 1 42.7011083,0 z"
               id="path19965"
               stroke-miterlimit="4" /><path
               style="fill:#000000;fill-opacity:0.49803922;fill-rule:nonzero;stroke:#0000ff;stroke-width:0;stroke-linecap:round;stroke-linejoin:round;stroke-miterlimit:4;stroke-dashoffset:0"
               inkscape:connector-curvature="0"
               id="path19967"
               d="m 35.434062,45.881548 a 26.577681,24.41246 0 1 1 -53.155338,0 26.577681,24.41246 0 1 1 53.155338,0 z"
               stroke-miterlimit="4" /><path
               style="fill:#000000;fill-opacity:0.49803922;fill-rule:nonzero;stroke:#0000ff;stroke-width:0;stroke-linecap:round;stroke-linejoin:round;stroke-miterlimit:4;stroke-dashoffset:0"
               inkscape:connector-curvature="0"
               d="m 157.89307,60.974098 a 22.56292,20.529079 0 1 1 -45.12584,0 22.56292,20.529079 0 1 1 45.12584,0 z"
               id="path19969"
               stroke-miterlimit="4" /><g
               id="g19946"><path
                 style="fill:#000000;fill-opacity:0.37254902;fill-rule:nonzero;stroke:#0000ff;stroke-width:0;stroke-linecap:round;stroke-linejoin:round;stroke-miterlimit:4;stroke-dashoffset:0"
                 inkscape:connector-curvature="0"
                 id="path15447"
                 d="m 241.59466,-63.335341 a 41.25264,36.922209 0 0 1 -82.50528,0 41.25264,36.922209 0 1 1 82.50528,0 z"
                 stroke-miterlimit="4" /><path
                 style="fill:#000000;fill-opacity:0.49803922;fill-rule:nonzero;stroke:#0000ff;stroke-width:0;stroke-linecap:round;stroke-linejoin:round;stroke-miterlimit:4;stroke-dashoffset:0"
                 inkscape:connector-curvature="0"
                 d="m 87.063448,82.215983 a 23.44136,21.27618 0 1 1 -46.882719,0 23.44136,21.27618 0 1 1 46.882719,0 z"
                 id="path15445"
                 stroke-miterlimit="4" /><path
                 style="fill:#000000;fill-opacity:0.37254902;fill-rule:nonzero;stroke:#0000ff;stroke-width:0;stroke-linecap:round;stroke-linejoin:round;stroke-miterlimit:4;stroke-dashoffset:0"
                 inkscape:connector-curvature="0"
                 id="path15439"
                 d="m 133.42136,-126.41898 a 33.895809,31.730591 0 1 1 -67.791612,0 33.895809,31.730591 0 1 1 67.791612,0 z"
                 stroke-miterlimit="4" /><path
                 style="fill:#000000;fill-opacity:0.56078389;fill-rule:nonzero;stroke:#0000ff;stroke-width:0;stroke-linecap:round;stroke-linejoin:round;stroke-miterlimit:4;stroke-dashoffset:0"
                 inkscape:connector-curvature="0"
                 d="m -29.562378,130.11524 a 21.350559,19.185341 0 1 1 -42.701109,0 21.350559,19.185341 0 1 1 42.701109,0 z"
                 id="path15441"
                 stroke-miterlimit="4" /><path
                 style="fill:#000000;fill-opacity:0.56078389;fill-rule:nonzero;stroke:#0000ff;stroke-width:0;stroke-linecap:round;stroke-linejoin:round;stroke-miterlimit:4;stroke-dashoffset:0"
                 inkscape:connector-curvature="0"
                 id="path15443"
                 d="m 106.95156,137.46667 a 26.577681,24.41246 0 1 1 -53.155343,0 26.577681,24.41246 0 1 1 53.155343,0 z"
                 stroke-miterlimit="4" /><path
                 style="fill:#000000;fill-opacity:0.37254902;fill-rule:nonzero;stroke:#0000ff;stroke-width:0;stroke-linecap:round;stroke-linejoin:round;stroke-miterlimit:4;stroke-dashoffset:0"
                 inkscape:connector-curvature="0"
                 d="m 149.89302,-64.285495 a 22.56292,20.529079 0 1 1 -45.12584,0 22.56292,20.529079 0 1 1 45.12584,0 z"
                 id="path18138"
                 stroke-miterlimit="4" /></g></g><path
             style="fill:#000000;fill-rule:evenodd;stroke:#0000ff;stroke-width:0;stroke-linecap:round;stroke-linejoin:round;stroke-miterlimit:4"
             inkscape:connector-curvature="0"
             id="path27156"
             d="m 462.10516,107.20914 c -44.76727,18.42814 -29.57718,36.78193 -29.57718,36.78193"
             stroke-miterlimit="4" /><path
             style="fill:#000000;fill-rule:evenodd;stroke:#0000ff;stroke-width:0;stroke-linecap:round;stroke-linejoin:round;stroke-miterlimit:4"
             inkscape:connector-curvature="0"
             d="M 537.59961,87.630493 C 455.31152,112.79247 474.86176,147.11331 474.86176,147.11331"
             id="path28946"
             stroke-miterlimit="4" /><path
             style="fill:#000000;fill-rule:evenodd;stroke:#0000ff;stroke-width:0;stroke-linecap:round;stroke-linejoin:round;stroke-miterlimit:4"
             inkscape:connector-curvature="0"
             id="path28948"
             d="M 604.59113,77.296242 C 498.30188,107.04548 516.11316,157.72507 516.11316,157.72507"
             stroke-miterlimit="4" /><path
             style="fill:#7e3659;fill-opacity:1;fill-rule:nonzero;stroke:none"
             inkscape:connector-curvature="0"
             id="path5587"
             d="m 428.55469,143.84562 c -34.72813,0 -67.89442,5.68416 -98.30285,15.94455 97.8347,33.01132 167.02614,113.76515 167.02614,208.12499 0,94.35983 -69.19144,175.14492 -167.02614,208.15621 30.40843,10.26038 63.57473,15.94458 98.30285,15.94458 73.23035,0 139.56263,-25.10321 187.58723,-65.66735 24.01233,-20.28205 64.78262,-69.75269 118.16925,-94.25791 53.38662,-24.50522 72.77177,-24.04501 72.77177,-54.96707 0,-30.92206 -24.51522,-32.11917 -77.90184,-61.22571 -53.38669,-29.1065 -89.02685,-86.12243 -113.03918,-106.4006 -48.0246,-40.55635 -114.35688,-65.65169 -187.58723,-65.65169 z"
             stroke-miterlimit="4" /><g
             id="g10976"><path
               style="fill:#000000;fill-rule:nonzero;stroke:#0000ff;stroke-width:0;stroke-linecap:round;stroke-linejoin:round;stroke-miterlimit:4;stroke-dashoffset:0"
               inkscape:connector-curvature="0"
               d="m 557.88165,743.85968 c -33.5849,62.11279 -109.38159,-9.40527 -127.87625,-40.65582 -20.99737,-33.27784 -34.91522,-77.19025 17.99997,-160.63111 7.39191,-9.69293 -4.55365,-27.6438 33.60413,-24.31183 24.73578,2.15998 3.66699,34.4842 19.95038,51.97376 18.0133,16.73511 37.72473,44.56994 50.11584,69.01691 14.30158,28.21618 23.1319,72.1618 6.20593,104.60809 z"
               id="path9185"
               stroke-miterlimit="4" /><path
               style="fill:#000000;fill-rule:nonzero;stroke:#0000ff;stroke-width:0;stroke-linecap:round;stroke-linejoin:round;stroke-miterlimit:4;stroke-dashoffset:0"
               inkscape:connector-curvature="0"
               id="path10081"
               d="m 557.88165,743.85968 c -33.5849,62.11279 -109.38159,-9.40527 -127.87625,-40.65582 -20.99737,-33.27784 -34.91522,-77.19025 17.99997,-160.63111 7.39191,-9.69293 -4.55365,-27.6438 33.60413,-24.31183 24.73578,2.15998 3.66699,34.4842 19.95038,51.97376 18.0133,16.73511 37.72473,44.56994 50.11584,69.01691 14.30158,28.21618 23.1319,72.1618 6.20593,104.60809 z"
               stroke-miterlimit="4" /></g></g><path
           style="fill:#000000;fill-opacity:0.24705882;fill-rule:nonzero;stroke:#0000ff;stroke-width:0;stroke-linecap:round;stroke-linejoin:round;stroke-miterlimit:4;stroke-dashoffset:0"
           inkscape:connector-curvature="0"
           id="path19957-7"
           d="m 268.06574,-176.77237 a 35.951513,35.339365 0 0 1 -71.90302,0 35.951513,35.339365 0 1 1 71.90302,0 z"
           stroke-miterlimit="4" /></g><circle
         transform="matrix(1.2075527,0,0,1.1963017,-40.274086,-49.509075)"
         d="m 303.82788,195.84558 c 0,29.66481 -24.04808,53.71289 -53.71289,53.71289 -29.66481,0 -53.71289,-24.04808 -53.71289,-53.71289 0,-29.66481 24.04808,-53.71289 53.71289,-53.71289 29.66481,0 53.71289,24.04808 53.71289,53.71289 z"
         style="fill:#ffffff;stroke:#000000;stroke-width:5"
         sodipodi:ry="53.712891"
         sodipodi:rx="53.712891"
         sodipodi:cy="195.84558"
         sodipodi:cx="250.11499"
         cx="250.11499"
         cy="195.84558"
         r="53.712891"
         id="svg_1" /><circle
         transform="matrix(1.3529956,0,0,1.2474348,-73.993385,-64.964283)"
         d="m 271.41187,219.84558 c 0,8.44823 -6.84865,15.29688 -15.29688,15.29688 -8.44823,0 -15.29687,-6.84865 -15.29687,-15.29688 0,-8.44823 6.84864,-15.29687 15.29687,-15.29687 8.44823,0 15.29688,6.84864 15.29688,15.29687 z"
         style="fill:#000000;stroke:#000000;stroke-width:5"
         sodipodi:ry="15.296875"
         sodipodi:rx="15.296875"
         sodipodi:cy="219.84558"
         sodipodi:cx="256.11499"
         cx="256.11499"
         cy="219.84558"
         r="15.296875"
         id="svg_2"
         inkscape:transform-center-x="1.9468064"
         inkscape:transform-center-y="-0.64418626" /><path
         style="fill:#000000;fill-rule:nonzero;stroke:#0000ff;stroke-width:0;stroke-linecap:round;stroke-linejoin:round;stroke-miterlimit:4;stroke-dashoffset:0"
         inkscape:connector-curvature="0"
         d="m 158.22382,369.94821 a 19.663496,17.601941 0 1 1 -39.32699,0 19.663496,17.601941 0 1 1 39.32699,0 z"
         id="path18138-4"
         stroke-miterlimit="4" /></g><path
       style="fill:#000000;fill-rule:nonzero;stroke:#0000ff;stroke-width:0;stroke-linecap:round;stroke-linejoin:round;stroke-miterlimit:4;stroke-dashoffset:0"
       inkscape:connector-curvature="0"
       d="m 23.944394,55.852083 a 1.462292,1.2319229 0 0 1 -2.924584,0 1.462292,1.2319229 0 1 1 2.924584,0 z"
       id="path18138-4-0"
       stroke-miterlimit="4" /></g><path
     style="fill:#000000;fill-opacity:0.18431373;fill-rule:nonzero;stroke:#0000ff;stroke-width:0;stroke-linecap:round;stroke-linejoin:round;stroke-miterlimit:4;stroke-dashoffset:0"
     inkscape:connector-curvature="0"
     id="path19957-7-9"
     d="m 39.521017,15.39828 a 3.446587,2.4733276 0 0 1 -6.893173,0 3.446587,2.4733276 0 1 1 6.893173,0 z"
     stroke-miterlimit="4" /><path
     inkscape:transform-center-x="3.639843"
     style="fill:#000000;fill-opacity:0.12156863;fill-rule:nonzero;stroke:#0000ff;stroke-width:0;stroke-linecap:round;stroke-linejoin:round;stroke-miterlimit:4;stroke-dashoffset:0"
     inkscape:connector-curvature="0"
     id="path19957-7-4"
     d="m 38.615364,7.5834171 a 3.639843,2.7310023 0 0 1 -7.279686,0 3.639843,2.7310023 0 1 1 7.279686,0 z"
     stroke-miterlimit="4" /></g></g>
</svg>
