<?xml version="1.0" encoding="UTF-8" standalone="no"?>
<!-- Generator: Adobe Illustrator 17.0.1, SVG Export Plug-In . SVG Version: 6.00 Build 0)  -->

<svg
   xmlns:dc="http://purl.org/dc/elements/1.1/"
   xmlns:cc="http://creativecommons.org/ns#"
   xmlns:rdf="http://www.w3.org/1999/02/22-rdf-syntax-ns#"
   xmlns:svg="http://www.w3.org/2000/svg"
   xmlns="http://www.w3.org/2000/svg"
   xmlns:sodipodi="http://sodipodi.sourceforge.net/DTD/sodipodi-0.dtd"
   xmlns:inkscape="http://www.inkscape.org/namespaces/inkscape"
   version="1.1"
   x="0px"
   y="0px"
   width="86px"
   height="86px"
   viewBox="0 0 86 86"
   enable-background="new 0 0 86 86"
   xml:space="preserve"
   id="svg7194"
   inkscape:version="0.48.2 r9819"
   sodipodi:docname="harbour-mmslog.svg"
   inkscape:export-filename="harbour-mmslog.png"
   inkscape:export-xdpi="90"
   inkscape:export-ydpi="90"><metadata
   id="metadata7221"><rdf:RDF><cc:Work
       rdf:about=""><dc:format>image/svg+xml</dc:format><dc:type
         rdf:resource="http://purl.org/dc/dcmitype/StillImage" /><dc:title></dc:title></cc:Work></rdf:RDF></metadata><defs
   id="defs7219" /><sodipodi:namedview
   pagecolor="#ffffff"
   bordercolor="#666666"
   borderopacity="1"
   objecttolerance="10"
   gridtolerance="10"
   guidetolerance="10"
   inkscape:pageopacity="0"
   inkscape:pageshadow="2"
   inkscape:window-width="1245"
   inkscape:window-height="990"
   id="namedview7217"
   showgrid="true"
   inkscape:snap-grids="true"
   inkscape:zoom="5.6568543"
   inkscape:cx="65.024212"
   inkscape:cy="25.276657"
   inkscape:window-x="1561"
   inkscape:window-y="83"
   inkscape:window-maximized="0"
   inkscape:current-layer="svg7194"><inkscape:grid
     type="xygrid"
     id="grid7958"
     empspacing="5"
     visible="true"
     enabled="true"
     snapvisiblegridlinesonly="true" /></sodipodi:namedview>
<g
   id="Layer_2"
   display="none">
</g>
<g
   id="Layer_1">
	<linearGradient
   id="SVGID_1_"
   gradientUnits="userSpaceOnUse"
   x1="12.8062"
   y1="12.8066"
   x2="85.2829"
   y2="85.2833">
		<stop
   offset="0.0049"
   style="stop-color:#08C0CC"
   id="stop7199" />
		<stop
   offset="1"
   style="stop-color:#1C8C79"
   id="stop7201" />
	</linearGradient>
	<path
   d="M85.699,43c0-23.582-19.117-42.7-42.7-42.7C19.417,0.3,0.3,19.418,0.3,43   c0,23.583,19.117,42.7,42.7,42.7c0.636,0,41.277,0,41.277,0c0.786,0,1.423-0.637,1.423-1.423C85.7,84.277,85.699,43.636,85.699,43z   "
   id="path7203"
   fill="url(#SVGID_1_)" />
	<g
   id="g7205">
	</g>
</g>
<path
   sodipodi:type="arc"
   style="fill:#97fff8;fill-opacity:1;fill-rule:nonzero;stroke:none"
   id="path8470"
   sodipodi:cx="120"
   sodipodi:cy="44.885593"
   sodipodi:rx="20"
   sodipodi:ry="18.885593"
   d="m 140,44.885593 a 20,18.885593 0 1 1 -40,0 20,18.885593 0 1 1 40,0 z"
   transform="matrix(1.1457627,0,0,1.1913843,-94.491524,-10.475991)" /><g
   id="Zoom__x2B_"
   transform="matrix(2.997423,0,0,3.1000509,33.42846,23.850079)"><g
     id="g4"><path
       inkscape:connector-curvature="0"
       style="fill-rule:evenodd"
       d="m 14.368652,15.067469 -3.792495,-3.659847 c 1.039687,-1.4383406 1.654048,-3.1833581 1.654048,-5.0690415 0,-4.8992286 -4.1141153,-8.8708225 -9.189153,-8.8708225 -5.0750379,0 -9.189153,3.9715939 -9.189153,8.8708225 0,4.8992285 4.1141151,8.8708215 9.189153,8.8708215 1.9533514,0 3.7609888,-0.593078 5.2509443,-1.596748 l 3.7911817,3.659848 c 0.631427,0.609552 1.654048,0.609552 2.285474,0 0.631426,-0.609553 0.630114,-1.595481 0,-2.205033 z m -11.3276,-2.392587 c -3.6244645,0 -6.5636807,-2.8373957 -6.5636807,-6.3363015 0,-3.498906 2.9392162,-6.33630181 6.5636807,-6.33630181 3.6244643,0 6.5636809,2.83739581 6.5636809,6.33630181 0,3.4989058 -2.9392166,6.3363015 -6.5636809,6.3363015 z"
       id="path6"
       sodipodi:nodetypes="ccsssscsscsssss" /></g></g><g
   style="font-size:14px;font-style:normal;font-variant:normal;font-weight:bold;font-stretch:normal;text-align:start;line-height:125%;letter-spacing:0px;word-spacing:0px;writing-mode:lr-tb;text-anchor:start;fill:#7e3659;fill-opacity:1;stroke:none;font-family:Sans;-inkscape-font-specification:Sans Bold"
   id="text9373"><path
     d="m 27.492676,48.007324 0,-10.021484 3.02832,0 1.818359,6.835937 1.797852,-6.835937 3.035156,0 0,10.021484 -1.879883,0 0,-7.888672 -1.989257,7.888672 -1.948243,0 -1.982421,-7.888672 0,7.888672 z"
     style=""
     id="path9378" /><path
     d="m 39.168457,48.007324 0,-10.021484 3.02832,0 1.81836,6.835937 1.797851,-6.835937 3.035157,0 0,10.021484 -1.879883,0 0,-7.888672 -1.989258,7.888672 -1.948242,0 -1.982422,-7.888672 0,7.888672 z"
     style=""
     id="path9380" /><path
     d="m 50.358887,44.746582 1.96875,-0.191406 c 0.118487,0.66081 0.358884,1.146161 0.721191,1.456054 0.362301,0.309898 0.85107,0.464846 1.466309,0.464844 0.651687,2e-6 1.142735,-0.137856 1.473144,-0.413574 0.330397,-0.275714 0.495599,-0.598142 0.495606,-0.967285 -7e-6,-0.236976 -0.06951,-0.438636 -0.208496,-0.604981 -0.139004,-0.166337 -0.38168,-0.311031 -0.728028,-0.434082 -0.236984,-0.08203 -0.777023,-0.22786 -1.620117,-0.4375 -1.084638,-0.268875 -1.845705,-0.599279 -2.283203,-0.991211 -0.615236,-0.551426 -0.922852,-1.223626 -0.922852,-2.016601 0,-0.510409 0.144693,-0.987785 0.434082,-1.432129 0.289387,-0.444327 0.706379,-0.782705 1.250977,-1.015137 0.544593,-0.232412 1.201982,-0.348622 1.972168,-0.348633 1.257807,1.1e-5 2.204583,0.275726 2.840332,0.827149 0.635734,0.551441 0.969555,1.287443 1.001465,2.208008 l -2.023438,0.08887 c -0.08659,-0.514967 -0.272304,-0.885246 -0.557129,-1.11084 -0.284836,-0.225578 -0.712081,-0.33837 -1.281738,-0.338379 -0.587894,9e-6 -1.04818,0.120777 -1.380859,0.362305 -0.214196,0.154956 -0.321292,0.362312 -0.321289,0.62207 -3e-6,0.236987 0.100257,0.439786 0.300781,0.608399 0.255205,0.214199 0.874996,0.437506 1.859375,0.669921 0.984369,0.232428 1.712396,0.472825 2.184082,0.721192 0.471672,0.248377 0.840812,0.587895 1.107422,1.018554 0.266593,0.430669 0.399894,0.962732 0.399902,1.596192 -8e-6,0.574221 -0.159513,1.111981 -0.478515,1.613281 -0.319019,0.501303 -0.77019,0.873861 -1.353516,1.117676 -0.58334,0.243815 -1.310227,0.365722 -2.180664,0.365723 -1.266931,-1e-6 -2.239911,-0.292806 -2.918945,-0.878418 -0.679038,-0.585611 -1.084636,-1.438963 -1.216797,-2.560059 z"
     style=""
     id="path9382" /></g></svg>
