<?xml version="1.0" encoding="UTF-8" standalone="no"?>
<svg
   xmlns:svg="http://www.w3.org/2000/svg"
   xmlns="http://www.w3.org/2000/svg"
   xmlns:sodipodi="http://sodipodi.sourceforge.net/DTD/sodipodi-0.dtd"
   xmlns:inkscape="http://www.inkscape.org/namespaces/inkscape"
   version="1.1"
   x="0px"
   y="0px"
   width="86px"
   height="86px"
   viewBox="0 0 86 86"
   enable-background="new 0 0 86 86"
   xml:space="preserve"
   inkscape:version="0.92.5 (2060ec1f9f, 2020-04-08)"
   sodipodi:docname="harbour-mmslog.svg"
   inkscape:export-filename="harbour-mmslog.png"
   inkscape:export-xdpi="96"
   inkscape:export-ydpi="96">
  <linearGradient
      id="SVGID_1_"
      gradientUnits="userSpaceOnUse"
      x1="12.8062"
      y1="12.8066"
      x2="85.2829"
      y2="85.2833">
    <stop
        offset="0.0049"
        style="stop-color:#08C0CC"/>
    <stop
        offset="1"
        style="stop-color:#1C8C79"/>
  </linearGradient>
  <path
      d="M85.699,43c0-23.582-19.117-42.7-42.7-42.7C19.417,0.3,0.3,19.418,0.3,43   c0,23.583,19.117,42.7,42.7,42.7c0.636,0,41.277,0,41.277,0c0.786,0,1.423-0.637,1.423-1.423C85.7,84.277,85.699,43.636,85.699,43z   "
      fill="url(#SVGID_1_)"/>
  <circle
      style="opacity:0.5;fill:#ffffff;fill-opacity:1;stroke:none;stroke-width:0.66950643;stroke-linecap:round;stroke-linejoin:round;stroke-miterlimit:10;stroke-dasharray:none;stroke-opacity:1"
      cx="42"
      cy="42"
      r="35"/>
  <g
      transform="matrix(2.997423,0,0,3.1000509,60.672469,0.81563373)">
    <path
        inkscape:connector-curvature="0"
        style="fill-rule:evenodd;stroke-width:4.05610228"
        d="M 42.927734,6.5332031 C 22.674003,6.5332028 6.2558594,22.906844 6.2558594,43.103516 c 0,20.19667 16.4181456,36.568359 36.6718746,36.568359 7.795536,0 15.010839,-2.444483 20.957032,-6.582031 L 70.6875,79.875 c 2.512359,2.468735 5.770375,2.020405 8.099609,-0.273438 2.845634,-2.802374 3.310983,-6.309409 0.980469,-8.855468 L 73,64 c 4.149237,-5.929446 6.601563,-13.122911 6.601562,-20.896484 0,-20.196671 -16.420099,-36.5703132 -36.673828,-36.5703129 z M 43,13 A 30,30 0 0 1 73,43 30,30 0 0 1 43,73 30,30 0 0 1 13,43 30,30 0 0 1 43,13 Z"
        transform="matrix(0.33361991,0,0,0.32257535,-20.493757,-0.59678988)"/>
  </g>
  <g
      transform="matrix(0.07142857,0,0,0.07146503,23.285715,4.4452808)"
      style="opacity:1;fill:#7e3659;fill-opacity:1">
    <g
        style="fill:#7e3659;fill-opacity:1">
      <path
          d="m 569.99999,616.46623 c 0,41.71196 -40.39883,75.48441 -84.03505,75.48441 H 429.94158 V 805.355 L 246.58072,691.95064 H 38.035037 c -46.3863192,0 -84.035048,-33.89095 -84.035048,-75.48441 v -239.2512 c 0,-41.83044 37.6487288,-75.60291 84.035048,-75.60291 H 485.96494 c 46.38632,0 84.03505,33.89097 84.03505,75.60291 z"
          inkscape:connector-curvature="0"
          sodipodi:nodetypes="sscccsssssss"
          style="fill:#7e3659;fill-opacity:1;stroke-width:1.23395777" />
    </g>
  </g>
  <g
      transform="matrix(1.0317705,0,0,1,-2.3661321,-3.185062)"
      style="font-style:normal;font-variant:normal;font-weight:bold;font-stretch:normal;font-size:14px;line-height:125%;font-family:Sans;-inkscape-font-specification:'Sans Bold';text-align:start;letter-spacing:0px;word-spacing:0px;writing-mode:lr-tb;text-anchor:start;fill:#c5c5c5;fill-opacity:1;stroke:none">
    <path
        inkscape:connector-curvature="0"
        d="M 27.492676,48.007324 V 37.98584 h 3.02832 l 1.818359,6.835937 1.797852,-6.835937 h 3.035156 V 48.007324 H 35.29248 v -7.888672 l -1.989257,7.888672 H 31.35498 l -1.982421,-7.888672 v 7.888672 z"
        style="fill:#c5c5c5;fill-opacity:1"/>
    <path
        inkscape:connector-curvature="0"
        d="M 39.168457,48.007324 V 37.98584 h 3.02832 l 1.81836,6.835937 1.797851,-6.835937 h 3.035157 v 10.021484 h -1.879883 v -7.888672 l -1.989258,7.888672 H 43.030762 L 41.04834,40.118652 v 7.888672 z"
        style="fill:#c5c5c5;fill-opacity:1"/>
    <path
        inkscape:connector-curvature="0"
        d="m 50.358887,44.746582 1.96875,-0.191406 c 0.118487,0.66081 0.358884,1.146161 0.721191,1.456054 0.362301,0.309898 0.85107,0.464846 1.466309,0.464844 0.651687,2e-6 1.142735,-0.137856 1.473144,-0.413574 0.330397,-0.275714 0.495599,-0.598142 0.495606,-0.967285 -7e-6,-0.236976 -0.06951,-0.438636 -0.208496,-0.604981 -0.139004,-0.166337 -0.38168,-0.311031 -0.728028,-0.434082 -0.236984,-0.08203 -0.777023,-0.22786 -1.620117,-0.4375 -1.084638,-0.268875 -1.845705,-0.599279 -2.283203,-0.991211 -0.615236,-0.551426 -0.922852,-1.223626 -0.922852,-2.016601 0,-0.510409 0.144693,-0.987785 0.434082,-1.432129 0.289387,-0.444327 0.706379,-0.782705 1.250977,-1.015137 0.544593,-0.232412 1.201982,-0.348622 1.972168,-0.348633 1.257807,1.1e-5 2.204583,0.275726 2.840332,0.827149 0.635734,0.551441 0.969555,1.287443 1.001465,2.208008 l -2.023438,0.08887 c -0.08659,-0.514967 -0.272304,-0.885246 -0.557129,-1.11084 -0.284836,-0.225578 -0.712081,-0.33837 -1.281738,-0.338379 -0.587894,9e-6 -1.04818,0.120777 -1.380859,0.362305 -0.214196,0.154956 -0.321292,0.362312 -0.321289,0.62207 -3e-6,0.236987 0.100257,0.439786 0.300781,0.608399 0.255205,0.214199 0.874996,0.437506 1.859375,0.669921 0.984369,0.232428 1.712396,0.472825 2.184082,0.721192 0.471672,0.248377 0.840812,0.587895 1.107422,1.018554 0.266593,0.430669 0.399894,0.962732 0.399902,1.596192 -8e-6,0.574221 -0.159513,1.111981 -0.478515,1.613281 -0.319019,0.501303 -0.77019,0.873861 -1.353516,1.117676 -0.58334,0.243815 -1.310227,0.365722 -2.180664,0.365723 -1.266931,-1e-6 -2.239911,-0.292806 -2.918945,-0.878418 -0.679038,-0.585611 -1.084636,-1.438963 -1.216797,-2.560059 z"
        style="fill:#c5c5c5;fill-opacity:1"/>
  </g>
</svg>
